<?xml version="1.0" encoding="UTF-8"?><svg id="a" xmlns="http://www.w3.org/2000/svg" width="2.25in" height="1.518in" viewBox="0 0 162 109.272"><path d="M158.548,17.145v88.675H3.452V17.145h155.096M162,13.693H0v95.579h162V13.693h0Z" fill="#f69220"/><path d="M22.127,37.145v-.738l4.267-1.803v.791l-3.384,1.385,3.384,1.402v.786l-4.267-1.823ZM26.385,40.028h-4.254v-.734h4.254v.734Z" fill="#231f20"/><path d="M33.309,39.733v.761h-4.258c-.006-.19.025-.374.092-.55.108-.29.282-.575.521-.856.238-.281.583-.606,1.035-.976.7-.574,1.173-1.029,1.419-1.365.246-.335.369-.652.369-.951,0-.313-.112-.578-.336-.793-.225-.216-.517-.323-.877-.323-.381,0-.686.114-.914.343s-.344.545-.347.949l-.813-.083c.056-.607.265-1.069.628-1.387.363-.318.851-.478,1.463-.478.618,0,1.107.172,1.468.515s.541.768.541,1.274c0,.258-.053.512-.158.761s-.281.511-.525.786c-.245.275-.651.653-1.22,1.134-.475.398-.779.669-.914.812-.135.142-.246.284-.334.428h3.16Z" fill="#231f20"/><path d="M38.037,35.629l-.787.062c-.07-.311-.17-.536-.299-.677-.214-.226-.478-.339-.791-.339-.252,0-.473.07-.664.211-.249.182-.445.447-.589.796s-.218.846-.224,1.49c.19-.29.423-.506.699-.646s.564-.211.866-.211c.527,0,.976.194,1.347.582.371.389.556.891.556,1.506,0,.404-.087.78-.261,1.127-.175.348-.414.613-.719.798s-.65.277-1.037.277c-.659,0-1.197-.243-1.613-.728-.416-.485-.624-1.284-.624-2.397,0-1.245.23-2.151.69-2.717.401-.492.942-.738,1.622-.738.507,0,.922.143,1.246.427s.518.677.583,1.178ZM34.807,38.406c0,.272.058.533.174.782.115.249.277.439.485.569.208.131.426.195.655.195.334,0,.621-.135.861-.404s.36-.636.36-1.099c0-.445-.119-.796-.356-1.053-.237-.256-.536-.384-.896-.384-.357,0-.661.128-.91.384-.249.257-.374.593-.374,1.009Z" fill="#231f20"/><path d="M38.713,37.316c0-.762.078-1.375.235-1.839.157-.465.39-.823.699-1.075.309-.252.698-.378,1.167-.378.346,0,.649.07.91.209.261.14.476.34.646.603.17.262.303.581.4.958.097.376.145.884.145,1.522,0,.756-.078,1.366-.233,1.831-.155.464-.388.823-.696,1.076-.31.254-.7.381-1.171.381-.621,0-1.109-.223-1.463-.669-.425-.536-.637-1.409-.637-2.619ZM39.526,37.316c0,1.058.124,1.762.371,2.112.248.35.553.524.917.524s.668-.176.917-.527c.247-.352.371-1.055.371-2.109,0-1.061-.124-1.765-.371-2.114-.248-.349-.556-.522-.925-.522-.363,0-.653.153-.87.461-.272.394-.409,1.118-.409,2.176Z" fill="#231f20"/><path d="M43.937,40.494v-.901h.901v.901h-.901Z" fill="#231f20"/><path d="M48.304,40.494v-1.543h-2.795v-.725l2.94-4.176h.646v4.176h.87v.725h-.87v1.543h-.791ZM48.304,38.226v-2.905l-2.017,2.905h2.017Z" fill="#231f20"/><path d="M53.027,40.494v-6.443h.791v6.443h-.791Z" fill="#231f20"/><path d="M55.548,40.494h-.734v-6.443h.791v2.299c.334-.419.76-.628,1.279-.628.287,0,.559.058.815.173.256.116.467.278.633.488.166.209.295.462.389.758s.141.612.141.949c0,.8-.198,1.418-.593,1.854-.396.438-.87.655-1.424.655-.551,0-.983-.229-1.296-.69v.585ZM55.539,38.125c0,.56.076.964.229,1.213.249.407.586.611,1.011.611.346,0,.645-.15.896-.45.252-.301.378-.748.378-1.343,0-.609-.121-1.06-.363-1.35-.241-.29-.534-.435-.876-.435-.346,0-.645.149-.896.45-.252.3-.378.734-.378,1.303Z" fill="#231f20"/><path d="M23.366,51.389c-.437-.551-.806-1.195-1.107-1.935-.302-.738-.453-1.503-.453-2.294,0-.697.113-1.365.338-2.004.264-.741.671-1.479,1.222-2.215h.567c-.354.609-.589,1.044-.703,1.305-.179.405-.319.827-.422,1.267-.126.548-.189,1.099-.189,1.652,0,1.409.438,2.817,1.314,4.224h-.567Z" fill="#231f20"/><path d="M27.386,49.494h-.791v-5.041c-.19.182-.44.363-.75.545s-.586.318-.833.409v-.765c.442-.208.829-.46,1.16-.757.331-.296.565-.583.703-.861h.51v6.47Z" fill="#231f20"/><path d="M32.166,49.494h-.791v-5.041c-.19.182-.44.363-.75.545s-.586.318-.833.409v-.765c.442-.208.829-.46,1.16-.757.331-.296.565-.583.703-.861h.51v6.47Z" fill="#231f20"/><path d="M35.185,46c-.328-.12-.571-.291-.729-.514s-.237-.489-.237-.8c0-.469.168-.863.505-1.183s.785-.479,1.345-.479c.562,0,1.015.164,1.358.49.343.327.514.725.514,1.193,0,.299-.079.559-.235.78-.157.221-.395.392-.714.512.396.129.697.337.903.624.207.287.31.63.31,1.028,0,.551-.195,1.014-.584,1.389-.39.376-.902.563-1.538.563s-1.148-.188-1.538-.565c-.39-.376-.584-.846-.584-1.408,0-.419.106-.77.319-1.053.212-.283.515-.476.907-.578ZM34.772,47.635c0,.226.053.444.16.655s.266.374.477.49c.211.115.438.173.681.173.378,0,.69-.121.936-.364s.369-.553.369-.928c0-.381-.127-.695-.38-.944s-.57-.374-.951-.374c-.372,0-.681.123-.925.369-.245.246-.367.554-.367.923ZM35.027,44.66c0,.305.098.554.294.747s.451.29.765.29c.305,0,.554-.097.75-.288.194-.192.292-.427.292-.705,0-.291-.101-.534-.301-.732-.201-.197-.451-.297-.75-.297-.302,0-.552.097-.751.29s-.299.426-.299.695Z" fill="#231f20"/><path d="M39.192,49.494v-.901h.901v.901h-.901Z" fill="#231f20"/><path d="M44.003,49.494h-.791v-5.041c-.19.182-.44.363-.75.545s-.586.318-.833.409v-.765c.442-.208.829-.46,1.16-.757.331-.296.565-.583.703-.861h.51v6.47Z" fill="#231f20"/><path d="M48.303,49.494v-6.443h.791v3.675l1.872-1.898h1.024l-1.784,1.731,1.964,2.936h-.976l-1.542-2.387-.558.536v1.851h-.791Z" fill="#231f20"/><path d="M52.429,49.881l.769.114c.032.237.122.41.268.519.196.146.464.22.804.22.366,0,.649-.073.848-.22s.334-.352.404-.615c.041-.161.06-.499.057-1.016-.346.408-.776.611-1.292.611-.642,0-1.138-.231-1.49-.694s-.527-1.019-.527-1.666c0-.445.081-.856.242-1.232.161-.377.395-.667.701-.872s.666-.308,1.079-.308c.551,0,1.005.223,1.362.668v-.562h.729v4.034c0,.727-.074,1.241-.222,1.545-.148.303-.383.543-.703.719-.321.176-.716.264-1.185.264-.557,0-1.006-.126-1.349-.376-.343-.251-.508-.628-.497-1.132ZM53.084,47.077c0,.612.122,1.059.365,1.34s.548.422.914.422c.363,0,.668-.14.914-.419.246-.28.369-.719.369-1.316,0-.571-.127-1.002-.38-1.292-.254-.29-.559-.436-.917-.436-.352,0-.65.143-.896.429-.246.285-.369.71-.369,1.272Z" fill="#231f20"/><path d="M57.873,51.389h-.567c.876-1.406,1.314-2.814,1.314-4.224,0-.551-.063-1.098-.189-1.64-.1-.439-.239-.861-.417-1.266-.114-.264-.35-.703-.708-1.318h.567c.551.735.958,1.474,1.222,2.215.226.639.338,1.307.338,2.004,0,.791-.151,1.556-.455,2.294-.303.739-.671,1.384-1.105,1.935Z" fill="#231f20"/><path d="M70.371,25.837c-1.25,0-2.26-1.011-2.26-2.257,0-.526.271-.967.475-1.388L79.222.868c.41-.529,1.054-.868,1.78-.868s1.374.34,1.783.868l10.632,21.324c.243.421.471.862.471,1.388,0,1.246-1.01,2.257-2.258,2.257h-21.259Z" fill="#f69220" fill-rule="evenodd"/><path d="M82.603,20.878c0,.884-.716,1.599-1.601,1.599s-1.6-.715-1.6-1.599.716-1.601,1.6-1.601,1.601.715,1.601,1.601Z" fill="#fff" fill-rule="evenodd"/><path d="M81.002,7.505c-.821,0-1.485.667-1.485,1.482l.491,8.009c0,.548.446.987.994.987.544,0,.986-.439.986-.987l.499-8.009c0-.816-.665-1.482-1.485-1.482Z" fill="#fff" fill-rule="evenodd"/><path d="M100.691,46.122c0,2.022,1.641,3.66,3.662,3.66s3.66-1.638,3.66-3.66-1.637-3.663-3.66-3.663-3.662,1.641-3.662,3.663Z" fill="#221f1f"/><path d="M105.155,51.879l-3.739-2.593s-1.831-.686-2.441,1.299l-5.11,10.221s-.228,1.907,1.678,3.586l7.019,8.086s.99.99.15,3.05l-2.744,6.179s-1.146,2.06.152,3.433l1.449.84s1.371,0,2.059-1.374l3.814-9.535s.765-3.281-.762-5.034l-5.035-5.722s-.838-1.449-.228-2.67l2.136-3.354.802-.154s-.343,2.441,1.182,3.356l6.864,5.645s1.144.077,1.525-.534l.613-.763s.454-1.297-.613-2.289l-5.911-5.261-2.859-6.41Z" fill="#221f1f"/><path d="M134.712,46.082c0,2.022-1.641,3.663-3.66,3.663s-3.662-1.641-3.662-3.663,1.637-3.66,3.662-3.66,3.66,1.638,3.66,3.66Z" fill="#221f1f"/><path d="M127.962,50.66h5.189s2.057.459,2.132,2.212c.077,1.755,0,5.57,0,5.57l.035,8.086s-.718.723-1.329,1.048c0,0-.535.248-.687.934l-.535,8.39.077,7.705s-.458,1.83-1.793,1.907h-.824s-1.35-.611-1.655-2.518v-11.213s-2.059-2.441-2.748-4.196c-.686-1.755-.686-10.831-.686-10.831,0,0-.076-.992-.915-.304l-4.731,6.635s-.895.403-1.41.229c0,0-1.088-.8-.744-2.174l8.126-10.412s1.219-1.39,2.497-1.067Z" fill="#221f1f"/><polygon points="120.344 76.217 136.624 73.556 136.624 60.548 120.344 57.887 104.066 60.548 104.066 73.556 120.344 76.217" fill="#fff"/><line x1="120.344" y1="63.209" x2="120.344" y2="76.217" fill="none" stroke="#221f1f" stroke-width="1.198"/><line x1="104.066" y1="60.548" x2="104.066" y2="73.556" fill="none" stroke="#221f1f" stroke-width="1.198"/><line x1="136.624" y1="60.548" x2="136.624" y2="73.556" fill="none" stroke="#221f1f" stroke-width="1.198"/><line x1="104.066" y1="60.548" x2="120.344" y2="63.209" fill="none" stroke="#221f1f" stroke-width="1.198"/><line x1="136.624" y1="60.548" x2="120.344" y2="63.209" fill="none" stroke="#221f1f" stroke-width="1.198"/><line x1="104.066" y1="60.548" x2="120.344" y2="57.887" fill="none" stroke="#221f1f" stroke-width="1.198"/><line x1="136.624" y1="60.548" x2="120.344" y2="57.887" fill="none" stroke="#221f1f" stroke-width="1.198"/><line x1="104.066" y1="73.556" x2="120.344" y2="76.217" fill="none" stroke="#221f1f" stroke-width="1.198"/><line x1="136.624" y1="73.556" x2="120.344" y2="76.217" fill="none" stroke="#221f1f" stroke-width="1.198"/><path d="M142.339,46.122c0,2.022-1.637,3.66-3.66,3.66s-3.66-1.638-3.66-3.66,1.636-3.663,3.66-3.663,3.66,1.641,3.66,3.663Z" fill="#221f1f"/><path d="M137.877,51.879l3.739-2.593s1.83-.686,2.441,1.299l5.109,10.221s.229,1.907-1.677,3.586l-7.02,8.086s-.988.99-.15,3.05l2.745,6.179s1.144,2.06-.152,3.433l-1.449.84s-1.374,0-2.059-1.374l-3.815-9.535s-.764-3.281.763-5.034l5.034-5.722s.839-1.449.229-2.67l-2.137-3.354-.8-.154s.342,2.441-1.182,3.356l-6.866,5.645s-1.144.077-1.525-.534l-.612-.763s-.455-1.297.612-2.289l5.912-5.261,2.859-6.41Z" fill="#221f1f"/><path d="M109.182,46.082c0,2.022,1.638,3.663,3.66,3.663s3.66-1.641,3.66-3.663-1.637-3.66-3.66-3.66-3.66,1.638-3.66,3.66Z" fill="#221f1f"/><path d="M115.932,50.66h-5.186s-2.06.459-2.136,2.212c-.077,1.755,0,5.57,0,5.57l-.034,8.086s.721.723,1.329,1.048c0,0,.535.248.687.934l.535,8.39-.075,7.705s.455,1.83,1.79,1.907h.823s1.353-.611,1.658-2.518v-11.213s2.057-2.441,2.745-4.196c.686-1.755.686-10.831.686-10.831,0,0,.077-.992.915-.304l4.731,6.635s.896.403,1.412.229c0,0,1.084-.8.742-2.174l-8.124-10.412s-1.222-1.39-2.499-1.067Z" fill="#221f1f"/><polyline points="39.109 94.9 64.793 79.876 64.793 67.738" fill="#fff" stroke="#211e1f" stroke-linecap="round" stroke-linejoin="round" stroke-width=".795"/><polyline points="16.258 69.395 41.987 56.015 64.779 67.738 39.062 82.562" fill="#fff" stroke="#211e1f" stroke-linecap="round" stroke-linejoin="round" stroke-width=".795"/><polygon points="39.058 94.874 39.058 82.567 16.261 69.399 16.227 81.416 39.058 94.874" fill="#fff" stroke="#211e1f" stroke-linecap="round" stroke-linejoin="round" stroke-width=".795"/><line x1="16.28" y1="75.787" x2="38.884" y2="88.858" fill="#fff" stroke="#211e1f" stroke-linecap="round" stroke-linejoin="round" stroke-width=".795"/><line x1="81" y1="32.174" x2="81" y2="98.568" fill="none" stroke="#f69220" stroke-linecap="round" stroke-linejoin="round" stroke-width="1.8"/></svg>